<svg width="1024" height="1024" viewBox="0 0 1024 1024" xmlns="http://www.w3.org/2000/svg">
  <rect x="0" y="0" width="1024" height="1024" rx="230" ry="230" fill="#8B1D24"/>

  <polygon points="260,590 512,630 512,740 260,710" fill="#F3EAD9" stroke="#6E1519" stroke-width="6"/>
  <polygon points="764,590 512,630 512,740 764,710" fill="#F3EAD9" stroke="#6E1519" stroke-width="6"/>
  <line x1="512" y1="630" x2="512" y2="740" stroke="#6E1519" stroke-width="6"/>

  <rect x="290" y="636" width="190" height="10" rx="5" fill="#8B1D24" opacity="0.55"/>
  <rect x="290" y="666" width="190" height="10" rx="5" fill="#8B1D24" opacity="0.55"/>
  <rect x="290" y="696" width="150" height="10" rx="5" fill="#8B1D24" opacity="0.55"/>

  <rect x="544" y="636" width="190" height="10" rx="5" fill="#8B1D24" opacity="0.55"/>
  <rect x="544" y="666" width="190" height="10" rx="5" fill="#8B1D24" opacity="0.55"/>
  <rect x="584" y="696" width="150" height="10" rx="5" fill="#8B1D24" opacity="0.55"/>

  <polygon points="512,460 512,290 659,375" fill="#F3EAD9"/>
  <polygon points="512,460 659,375 659,545" fill="#E4D5BB"/>
  <polygon points="512,460 659,545 512,630" fill="#F3EAD9"/>
  <polygon points="512,460 512,630 365,545" fill="#E4D5BB"/>
  <polygon points="512,460 365,545 365,375" fill="#F3EAD9"/>
  <polygon points="512,460 365,375 512,290" fill="#E4D5BB"/>

  <g stroke="#6E1519" stroke-width="7" stroke-linejoin="round">
    <line x1="512" y1="460" x2="512" y2="290"/>
    <line x1="512" y1="460" x2="659" y2="375"/>
    <line x1="512" y1="460" x2="659" y2="545"/>
    <line x1="512" y1="460" x2="512" y2="630"/>
    <line x1="512" y1="460" x2="365" y2="545"/>
    <line x1="512" y1="460" x2="365" y2="375"/>
  </g>
  <polygon points="512,290 659,375 659,545 512,630 365,545 365,375" fill="none" stroke="#6E1519" stroke-width="9" stroke-linejoin="round"/>
</svg>
